<svg width="102" height="21" viewBox="0 0 438 76" fill="none" xmlns="http://www.w3.org/2000/svg">
    <path d="M0.205468 74V1.70318H24.4892C28.2593 1.70318 31.7337 1.99887 34.9124 2.59025C38.165 3.10771 40.9741 4.06871 43.3396 5.47325C45.7052 6.87779 47.5532 8.72587 48.8839 11.0175C50.2884 13.3091 50.9907 16.1921 50.9907 19.6665C50.9907 21.2928 50.7319 22.9191 50.2145 24.5454C49.7709 26.1717 49.0317 27.6872 47.9968 29.0917C46.9618 30.4962 45.6682 31.7529 44.1158 32.8618C42.5634 33.9706 40.7153 34.7838 38.5716 35.3012V35.7448C43.7462 36.7058 47.6641 38.5539 50.3254 41.289C52.9866 44.0242 54.3172 47.8312 54.3172 52.7101C54.3172 56.4063 53.6149 59.585 52.2104 62.2462C50.8059 64.9075 48.8469 67.1251 46.3335 68.8993C43.8201 70.5995 40.8632 71.8932 37.4627 72.7803C34.1362 73.5934 30.514 74 26.596 74H0.205468ZM16.5055 30.755H23.713C27.7049 30.755 30.5879 29.9788 32.362 28.4264C34.1362 26.874 35.0233 24.6933 35.0233 21.8842C35.0233 19.223 34.0992 17.3379 32.2511 16.2291C30.477 15.0463 27.6679 14.4549 23.8239 14.4549H16.5055V30.755ZM16.5055 61.2483H25.2654C33.9883 61.2483 38.3498 57.9956 38.3498 51.4904C38.3498 48.3117 37.2779 46.0201 35.1342 44.6156C33.0643 43.211 29.7747 42.5087 25.2654 42.5087H16.5055V61.2483ZM70.3522 74V1.70318H86.6522V60.2503H118.809V74H70.3522ZM158.24 75.3306C153.953 75.3306 149.998 74.5175 146.376 72.8912C142.827 71.2648 139.76 68.8623 137.172 65.6836C134.659 62.505 132.7 58.587 131.295 53.9299C129.891 49.1988 129.189 43.7285 129.189 37.5189C129.189 31.4572 129.891 26.1348 131.295 21.5515C132.7 16.8944 134.659 13.0134 137.172 9.90864C139.76 6.72995 142.827 4.36441 146.376 2.81202C149.998 1.18571 153.953 0.372557 158.24 0.372557C162.528 0.372557 166.446 1.18571 169.994 2.81202C173.616 4.36441 176.684 6.72995 179.198 9.90864C181.785 13.0134 183.781 16.8944 185.185 21.5515C186.59 26.1348 187.292 31.4572 187.292 37.5189C187.292 43.7285 186.59 49.1988 185.185 53.9299C183.781 58.587 181.785 62.505 179.198 65.6836C176.684 68.8623 173.616 71.2648 169.994 72.8912C166.446 74.5175 162.528 75.3306 158.24 75.3306ZM158.24 61.2483C162.01 61.2483 165.004 59.2523 167.222 55.2605C169.44 51.2686 170.549 45.3548 170.549 37.5189C170.549 29.9788 169.44 24.2497 167.222 20.3318C165.004 16.4139 162.01 14.4549 158.24 14.4549C154.47 14.4549 151.476 16.4139 149.259 20.3318C147.041 24.2497 145.932 29.9788 145.932 37.5189C145.932 45.3548 147.041 51.2686 149.259 55.2605C151.476 59.2523 154.47 61.2483 158.24 61.2483ZM229.496 75.3306C224.839 75.3306 220.477 74.5544 216.412 73.002C212.42 71.3757 208.908 69.0102 205.878 65.9054C202.921 62.8006 200.592 58.9566 198.892 54.3734C197.192 49.7163 196.341 44.3568 196.341 38.2951C196.341 32.2334 197.192 26.874 198.892 22.2168C200.666 17.4858 203.031 13.5309 205.988 10.3522C209.019 7.09956 212.568 4.62314 216.633 2.92291C220.699 1.22267 225.061 0.372557 229.718 0.372557C234.597 0.372557 238.736 1.33356 242.137 3.25556C245.611 5.10364 248.531 7.21045 250.897 9.57599L241.915 19.6665C240.363 18.1141 238.662 16.8574 236.814 15.8964C234.966 14.9354 232.601 14.4549 229.718 14.4549C227.352 14.4549 225.171 15.0093 223.176 16.1182C221.18 17.1531 219.442 18.6685 217.964 20.6645C216.485 22.6604 215.303 25.0998 214.416 27.9828C213.602 30.8659 213.196 34.1185 213.196 37.7407C213.196 45.2069 214.6 51.0099 217.41 55.1496C220.293 59.2154 224.617 61.2483 230.383 61.2483C231.788 61.2483 233.118 61.0635 234.375 60.6938C235.632 60.3242 236.667 59.7698 237.48 59.0306V46.6115H226.946V33.3053H252.116V66.5707C249.677 68.8623 246.461 70.8952 242.469 72.6694C238.478 74.4435 234.153 75.3306 229.496 75.3306ZM295.983 75.3306C291.326 75.3306 286.965 74.5544 282.899 73.002C278.907 71.3757 275.396 69.0102 272.365 65.9054C269.408 62.8006 267.08 58.9566 265.379 54.3734C263.679 49.7163 262.829 44.3568 262.829 38.2951C262.829 32.2334 263.679 26.874 265.379 22.2168C267.153 17.4858 269.519 13.5309 272.476 10.3522C275.507 7.09956 279.055 4.62314 283.121 2.92291C287.187 1.22267 291.548 0.372557 296.205 0.372557C301.084 0.372557 305.224 1.33356 308.624 3.25556C312.099 5.10364 315.019 7.21045 317.384 9.57599L308.403 19.6665C306.85 18.1141 305.15 16.8574 303.302 15.8964C301.454 14.9354 299.088 14.4549 296.205 14.4549C293.84 14.4549 291.659 15.0093 289.663 16.1182C287.667 17.1531 285.93 18.6685 284.451 20.6645C282.973 22.6604 281.79 25.0998 280.903 27.9828C280.09 30.8659 279.683 34.1185 279.683 37.7407C279.683 45.2069 281.088 51.0099 283.897 55.1496C286.78 59.2154 291.105 61.2483 296.871 61.2483C298.275 61.2483 299.606 61.0635 300.862 60.6938C302.119 60.3242 303.154 59.7698 303.967 59.0306V46.6115H293.433V33.3053H318.604V66.5707C316.164 68.8623 312.949 70.8952 308.957 72.6694C304.965 74.4435 300.641 75.3306 295.983 75.3306ZM332.199 74V1.70318H357.814C361.658 1.70318 365.243 2.07279 368.57 2.81202C371.97 3.55125 374.927 4.80795 377.44 6.5821C380.028 8.28233 382.061 10.574 383.539 13.457C385.018 16.34 385.757 19.9252 385.757 24.2128C385.757 29.5352 384.574 33.9337 382.208 37.408C379.843 40.8085 376.738 43.3589 372.894 45.0591L389.194 74H370.898L357.038 47.9421H348.499V74H332.199ZM348.499 34.9686H356.483C365.28 34.9686 369.678 31.3833 369.678 24.2128C369.678 20.6645 368.57 18.188 366.352 16.7835C364.134 15.379 360.845 14.6767 356.483 14.6767H348.499V34.9686ZM424.19 75.3306C420.346 75.3306 417.242 74.1109 414.876 71.6714C412.511 69.158 411.328 66.0533 411.328 62.3571C411.328 60.509 411.623 58.8088 412.215 57.2564C412.88 55.6301 413.767 54.2256 414.876 53.0428C415.985 51.86 417.316 50.936 418.868 50.2707C420.494 49.6054 422.268 49.2727 424.19 49.2727C426.112 49.2727 427.85 49.6054 429.402 50.2707C431.028 50.936 432.396 51.86 433.505 53.0428C434.614 54.2256 435.464 55.6301 436.055 57.2564C436.72 58.8088 437.053 60.509 437.053 62.3571C437.053 66.0533 435.87 69.158 433.505 71.6714C431.139 74.1109 428.034 75.3306 424.19 75.3306Z" fill="#000" />
</svg>